<?xml version="1.0" standalone="no"?>
<!DOCTYPE svg PUBLIC "-//W3C//DTD SVG 20010904//EN"
 "http://www.w3.org/TR/2001/REC-SVG-20010904/DTD/svg10.dtd">
<svg version="1.0" xmlns="http://www.w3.org/2000/svg"
 width="498.000000pt" height="498.000000pt" viewBox="0 0 498.000000 498.000000"
 preserveAspectRatio="xMidYMid meet">

<g transform="translate(0.000000,498.000000) scale(0.100000,-0.100000)"
fill="#000000" stroke="none">
<path d="M2 2493 l-2 -2493 2490 0 2490 0 0 2490 0 2490 -315 0 -315 0 0 -310
0 -310 310 0 310 0 0 -310 0 -310 -310 0 -310 0 0 310 0 310 -310 0 -310 0 0
310 0 310 -310 0 -310 0 0 -310 0 -310 -310 0 -310 0 0 310 0 310 -310 0 -310
0 0 -310 0 -310 -310 0 -310 0 0 310 0 310 -310 0 -310 0 0 -310 0 -310 -310
0 -310 0 -3 313 c-1 171 -3 -810 -5 -2180z m868 2357 c0 -13 -28 -25 -38 -16
-3 4 0 11 8 16 20 13 30 12 30 0z m193 -27 c75 -52 117 -162 117 -310 0 -91 0
-93 -24 -93 -24 0 -24 1 -27 118 -4 109 -6 122 -36 183 -27 55 -41 70 -78 90
-51 27 -62 55 -17 44 15 -3 44 -18 65 -32z m3755 5 c-3 -10 -43 -14 -144 -16
-143 -3 -184 1 -184 18 0 6 64 10 166 10 128 0 165 -3 162 -12z m-3993 -38 c7
-12 -30 -50 -50 -50 -21 0 -19 10 7 37 23 25 34 28 43 13z m3935 -9 c0 -23
-32 -32 -111 -29 -70 3 -84 6 -87 21 -3 15 7 17 97 17 56 0 101 -4 101 -9z
m-1327 -31 c3 -11 12 -20 21 -20 9 0 16 -4 16 -10 0 -5 -7 -10 -16 -10 -9 0
-18 -9 -21 -20 -3 -11 -9 -20 -13 -20 -4 0 -10 9 -13 20 -3 11 -12 20 -21 20
-23 0 -20 17 4 23 11 3 20 12 20 21 0 23 17 20 23 -4z m-2458 -27 c-3 -16 -13
-35 -22 -43 -13 -13 -14 -11 -8 20 9 42 13 50 27 50 6 0 8 -11 3 -27z m-245
-107 c0 -16 -18 -31 -27 -22 -8 8 5 36 17 36 5 0 10 -6 10 -14z m2738 -6 c2
-12 -7 -14 -48 -12 -27 2 -50 8 -50 12 0 24 93 24 98 0z m-1119 -15 c23 -23
-5 -32 -79 -24 -41 4 -113 5 -160 1 -111 -9 -105 -9 -105 8 0 8 13 18 30 22
44 10 303 4 314 -7z m2401 11 c0 -2 3 -11 6 -20 5 -14 -7 -16 -93 -16 -104 0
-120 4 -102 27 8 9 38 13 100 13 49 0 89 -2 89 -4z m-3980 -35 c0 -12 -20 -25
-27 -18 -7 7 6 27 18 27 5 0 9 -4 9 -9z m2728 -28 c3 -10 -17 -13 -77 -13 -75
0 -92 6 -74 24 12 12 146 2 151 -11z m-1173 -9 c44 -17 -4 -26 -148 -27 -135
-2 -157 0 -155 13 2 10 20 17 53 22 55 7 225 1 250 -8z m2483 -1 c3 -10 -31
-13 -147 -13 -139 0 -164 4 -144 24 4 3 70 5 147 4 100 -2 141 -6 144 -15z
m-2501 -59 c17 -2 33 -10 36 -17 3 -9 -35 -12 -164 -12 -125 0 -169 3 -169 12
0 26 171 36 297 17z m1098 6 c-3 -5 -11 -10 -16 -10 -6 0 -7 5 -4 10 3 6 11
10 16 10 6 0 7 -4 4 -10z m50 0 c3 -5 1 -10 -4 -10 -6 0 -11 5 -11 10 0 6 2
10 4 10 3 0 8 -4 11 -10z m1355 -15 c0 -13 -23 -15 -149 -15 -136 0 -172 5
-154 24 3 3 73 6 155 6 125 0 148 -2 148 -15z m-3560 -415 l0 -310 310 0 310
0 0 310 0 310 310 0 310 0 0 -310 0 -310 310 0 310 0 0 310 0 310 310 0 310 0
0 -310 0 -310 310 0 310 0 0 -310 0 -310 310 0 310 0 0 -310 0 -310 -310 0
-310 0 0 -310 0 -310 310 0 310 0 0 -310 0 -310 -310 0 -310 0 0 -310 0 -310
310 0 310 0 0 -310 0 -310 -310 0 -310 0 0 310 0 310 -310 0 -310 0 0 -310 0
-310 -310 0 -310 0 0 310 0 310 -310 0 -310 0 0 -310 0 -310 -310 0 -310 0 0
241 c0 219 1 239 16 225 8 -9 21 -16 28 -16 8 0 17 -32 25 -93 6 -50 21 -116
33 -144 19 -46 20 -59 11 -100 -13 -55 -11 -57 60 -73 91 -19 304 -7 330 19 4
4 3 28 -3 53 -10 40 -9 52 9 93 12 27 26 90 33 142 11 89 13 95 40 109 24 13
29 20 26 47 -2 27 -8 33 -31 35 -41 5 -60 -15 -52 -54 4 -26 -1 -45 -26 -89
-17 -30 -35 -58 -40 -61 -5 -3 -9 29 -9 73 0 67 3 80 20 91 38 23 20 82 -25
82 -39 0 -61 -50 -35 -76 8 -8 2 -34 -16 -85 -15 -41 -29 -76 -31 -78 -7 -9
-13 9 -28 84 -13 70 -13 81 0 95 34 37 2 90 -45 75 -28 -9 -37 -51 -16 -74 15
-17 16 -27 6 -82 -21 -121 -24 -122 -64 -15 -18 47 -23 73 -16 80 14 14 13 49
-2 64 -18 18 -56 14 -68 -7 -14 -28 -13 -38 10 -61 18 -18 20 -31 18 -98 l-3
-77 -38 64 c-30 50 -37 70 -32 93 4 17 2 35 -5 43 -15 18 -52 19 -68 3 -9 -9
-12 0 -12 40 l0 52 -310 0 -310 0 0 -310 0 -310 -310 0 -310 0 0 310 0 310
-310 0 -310 0 0 310 0 310 310 0 310 0 0 310 0 310 -310 0 -310 0 0 310 0 310
310 0 310 0 0 310 0 310 -310 0 -310 0 0 310 0 310 310 0 310 0 0 310 0 310
310 0 310 0 0 -310z m-1163 190 c-21 -49 -37 -65 -37 -35 0 9 7 29 15 45 15
28 14 29 -13 33 -19 3 -15 4 15 6 l41 1 -21 -50z m-4 -1197 c-28 -5 -30 -19
-3 -26 26 -7 36 -33 20 -52 -16 -19 -44 -19 -60 0 -10 12 -10 15 3 15 8 0 18
-6 20 -12 4 -10 8 -10 15 1 15 21 3 43 -19 36 -15 -5 -19 -1 -19 19 0 23 4 26
33 25 23 -1 26 -3 10 -6z m12 -1258 c0 -11 5 -23 10 -27 14 -11 -8 -42 -32
-46 -11 -2 -26 4 -33 13 -10 12 -10 15 4 15 9 0 16 -4 16 -10 0 -5 5 -10 10
-10 15 0 12 40 -2 41 -10 0 -10 2 -1 6 15 6 17 33 3 33 -5 0 -10 -4 -10 -10 0
-5 -7 -10 -16 -10 -14 0 -14 3 -4 15 18 22 55 15 55 -10z m4593 -597 c15 -15
16 -54 2 -63 -19 -12 -10 -33 25 -54 29 -17 35 -26 35 -54 0 -23 -9 -43 -26
-63 l-27 -28 23 -16 c77 -52 120 -128 105 -187 l-6 -23 -162 2 -162 3 -3 43
c-4 55 32 120 82 147 20 11 36 24 36 28 0 5 -11 22 -25 39 -14 16 -25 39 -25
51 0 23 37 67 56 67 22 0 25 18 9 51 -15 29 -15 32 1 50 20 22 44 25 62 7z
m-2493 -618 c0 -8 -8 -16 -17 -18 -13 -2 -18 3 -18 18 0 15 5 20 18 18 9 -2
17 -10 17 -18z m-2003 -12 c3 -20 10 -23 50 -26 42 -3 47 -1 50 20 4 33 45 38
50 6 3 -20 10 -23 51 -26 45 -3 47 -2 47 23 0 22 4 26 23 23 18 -2 22 -9 22
-38 l0 -35 -167 -3 -168 -2 0 40 c0 33 3 40 19 40 13 0 21 -8 23 -22z m1388 2
c0 -13 -7 -20 -20 -20 -13 0 -20 7 -20 20 0 13 7 20 20 20 13 0 20 -7 20 -20z
m480 -5 c0 -16 -27 -27 -36 -14 -3 5 -3 16 0 24 6 17 36 9 36 -10z m269 -11
c-9 -11 -15 -12 -25 -3 -11 9 -12 15 -3 25 9 11 15 12 25 3 11 -9 12 -15 3
-25z m-2239 -24 c0 -27 -4 -50 -10 -50 -5 0 -10 16 -10 35 0 26 -3 33 -15 29
-20 -8 -19 6 3 22 28 22 32 17 32 -36z m3845 20 c4 -6 1 -17 -5 -25 -11 -13
-7 -15 19 -15 27 0 34 5 42 30 6 17 14 30 19 30 11 0 27 -22 31 -44 5 -24 29
-34 29 -12 0 9 5 16 11 16 27 0 111 -56 134 -91 35 -49 65 -148 65 -210 0 -37
4 -49 15 -49 11 0 15 -12 15 -50 0 -56 -17 -73 -51 -52 -12 8 -72 12 -169 12
-129 0 -150 2 -150 16 0 25 20 56 67 105 38 39 45 54 53 105 4 32 11 66 15 75
3 10 2 20 -4 24 -6 3 -14 -2 -17 -12 -14 -44 -29 -63 -63 -79 -46 -21 -66 -39
-104 -89 -28 -37 -29 -38 -25 -12 6 31 2 33 -24 10 -15 -13 -23 -15 -36 -7
-30 19 -26 62 11 123 18 31 39 75 46 99 9 31 17 42 29 40 11 -2 16 2 14 12 -2
8 -6 30 -9 49 -6 31 -5 33 15 22 11 -6 24 -16 27 -21z m-1997 -17 c5 -17 -26
-29 -40 -15 -6 6 -7 15 -3 22 9 14 37 9 43 -7z m517 -3 c0 -8 -8 -16 -17 -18
-13 -2 -18 3 -18 18 0 15 5 20 18 18 9 -2 17 -10 17 -18z m-830 -73 c62 -60
70 -95 34 -141 -19 -24 -26 -26 -99 -26 -73 0 -80 2 -99 26 -37 47 -28 81 36
141 31 29 60 53 65 53 5 0 33 -24 63 -53z m1209 14 c6 -10 -25 -101 -34 -101
-10 0 -40 69 -40 90 0 36 54 44 74 11z m-2384 11 c0 -25 -30 -32 -128 -32
-100 0 -149 11 -137 31 7 11 265 12 265 1z m1744 -94 c7 -47 6 -48 -18 -48
-14 0 -26 2 -26 5 0 2 5 27 11 55 13 60 24 55 33 -12z m505 46 c22 -9 46 -26
54 -38 19 -29 37 -95 28 -100 -4 -3 -47 -10 -96 -17 l-89 -11 -28 31 c-37 41
-38 92 -3 126 29 30 75 33 134 9z m326 -7 c38 -32 37 -88 -1 -129 -31 -32 -27
-32 -171 -12 -51 7 -55 26 -20 89 40 72 139 98 192 52z m-930 -68 c5 -20 2
-25 -14 -25 -19 0 -21 6 -20 56 l1 55 13 -31 c8 -17 17 -42 20 -55z m203 29
c-3 -46 -6 -53 -25 -56 -13 -2 -23 0 -23 5 0 19 35 103 42 103 5 0 8 -24 6
-52z m-1888 -38 l0 -81 -92 3 -93 3 -3 78 -3 77 96 0 95 0 0 -80z m1590 -2
c11 -20 16 -39 11 -42 -17 -11 -41 21 -46 64 -7 50 0 45 35 -22z m385 3 c-5
-28 -13 -42 -27 -46 -31 -10 -32 0 -3 50 15 25 30 44 32 41 3 -3 2 -23 -2 -45z
m-141 -48 c19 3 39 -1 51 -9 10 -8 29 -14 42 -14 13 0 23 -6 23 -12 0 -10 -44
-13 -185 -13 -141 0 -185 3 -185 13 0 6 10 12 23 12 13 0 32 7 43 15 12 9 31
12 51 9 17 -3 39 -1 49 4 13 7 25 7 38 0 10 -6 33 -8 50 -5z m-626 -45 c23
-23 12 -28 -58 -28 -70 0 -81 5 -58 28 16 16 100 16 116 0z m1321 -4 c25 -5
31 -11 29 -26 -3 -19 -13 -20 -171 -21 -165 -2 -167 -2 -167 20 0 12 8 24 18
26 27 7 256 8 291 1z m-2500 -17 c6 -8 8 -17 4 -20 -11 -12 -241 -8 -249 4
-13 21 21 29 127 29 77 0 110 -4 118 -13z m1870 -3 c17 -4 31 -12 31 -18 0 -8
-49 -11 -165 -11 -121 0 -165 3 -165 12 0 6 12 14 28 16 45 7 237 7 271 1z
m-694 -34 c4 -6 -17 -10 -55 -10 -38 0 -59 4 -55 10 3 6 28 10 55 10 27 0 52
-4 55 -10z m-1145 -30 c0 -19 -7 -20 -149 -20 -89 0 -152 4 -156 10 -15 25 13
30 156 30 142 0 149 -1 149 -20z m1856 3 c8 -3 14 -10 14 -17 0 -8 -48 -11
-165 -11 -91 0 -165 3 -165 6 0 15 28 28 70 32 51 5 225 -2 246 -10z m635 -4
c16 -25 10 -30 -28 -22 -47 10 -238 9 -276 -1 -24 -6 -28 -4 -25 11 5 26 46
32 191 29 98 -2 131 -6 138 -17z m-2363 -32 c3 -38 3 -38 -30 -35 -38 4 -51
33 -19 43 12 3 21 11 21 16 0 6 -9 7 -21 4 -15 -5 -19 -4 -14 5 4 6 19 10 33
8 23 -3 27 -8 30 -41z m1238 32 c4 -7 0 -9 -14 -5 -24 8 -36 -7 -27 -35 5 -14
12 -18 26 -14 11 4 19 2 19 -4 0 -10 -122 -18 -199 -13 -27 1 -61 29 -61 49 0
10 8 8 28 -7 25 -18 37 -20 95 -14 40 4 67 11 67 18 0 30 51 49 66 25z m1242
-11 c3 -14 -3 -18 -23 -18 -17 0 -25 -5 -22 -12 2 -7 14 -12 26 -11 13 2 20
-1 16 -7 -11 -18 -54 -11 -65 10 -16 31 4 62 38 58 16 -2 28 -10 30 -20z
m-1540 -23 c-15 -34 -51 -43 -138 -36 -102 8 -91 26 15 26 67 0 88 4 102 18
25 24 34 21 21 -8z m787 -22 c18 -11 18 -12 -10 -20 -66 -18 -321 -6 -301 14
23 23 272 27 311 6z m626 0 c17 -17 -44 -27 -156 -27 -138 0 -208 21 -125 37
50 10 269 2 281 -10z m-2431 -8 c0 -13 -29 -15 -205 -15 -176 0 -205 2 -205
15 0 13 29 15 205 15 176 0 205 -2 205 -15z"/>
<path d="M885 4300 c-13 -14 -16 -29 -12 -56 5 -32 2 -41 -23 -64 -24 -22 -30
-37 -30 -68 0 -23 6 -45 15 -52 23 -19 19 -29 -26 -69 -47 -41 -72 -114 -60
-172 l7 -34 179 -3 c136 -2 180 1 187 10 15 24 8 101 -13 145 -11 23 -35 53
-52 65 -18 12 -34 23 -36 24 -2 2 6 15 18 30 11 15 21 38 21 51 0 35 -26 80
-51 88 -15 5 -18 11 -13 23 13 30 7 75 -12 89 -27 20 -78 16 -99 -7z"/>
<path d="M2125 4300 c-13 -14 -16 -29 -12 -56 5 -32 2 -41 -23 -64 -24 -22
-30 -37 -30 -68 0 -23 6 -45 15 -52 23 -19 19 -29 -26 -69 -47 -41 -72 -114
-60 -172 l7 -34 179 -3 c136 -2 180 1 187 10 15 24 8 101 -13 145 -11 23 -35
53 -52 65 -18 12 -34 23 -36 24 -2 2 6 15 18 30 11 15 21 38 21 51 0 35 -26
80 -51 88 -15 5 -18 11 -13 23 13 30 7 75 -12 89 -27 20 -78 16 -99 -7z"/>
<path d="M3365 4300 c-13 -14 -16 -29 -12 -56 5 -32 2 -41 -23 -64 -24 -22
-30 -37 -30 -68 0 -23 6 -45 15 -52 23 -19 19 -29 -26 -69 -47 -41 -72 -114
-60 -172 l7 -34 179 -3 c136 -2 180 1 187 10 15 24 8 101 -13 145 -11 23 -35
53 -52 65 -18 12 -34 23 -36 24 -2 2 6 15 18 30 11 15 21 38 21 51 0 35 -26
80 -51 88 -15 5 -18 11 -13 23 13 30 7 75 -12 89 -27 20 -78 16 -99 -7z"/>
<path d="M630 3430 l0 -310 310 0 310 0 0 -310 0 -310 -310 0 -310 0 0 -310 0
-310 310 0 310 0 0 -310 0 -310 -310 0 -310 0 0 -310 0 -310 310 0 310 0 0
310 0 310 310 0 310 0 0 -310 0 -310 310 0 310 0 0 310 0 310 310 0 310 0 0
-310 0 -310 310 0 310 0 0 310 0 310 310 0 310 0 0 310 0 310 -310 0 -310 0 0
310 0 310 310 0 310 0 0 310 0 310 -310 0 -310 0 0 310 0 310 -310 0 -310 0 0
-310 0 -310 -310 0 -310 0 0 310 0 310 -310 0 -310 0 0 -310 0 -310 -310 0
-310 0 0 310 0 310 -310 0 -310 0 0 -310z m1860 -620 l0 -310 310 0 310 0 0
310 0 310 310 0 310 0 0 -310 0 -310 -310 0 -310 0 0 -310 0 -310 310 0 310 0
0 -310 0 -310 -310 0 -310 0 0 310 0 310 -310 0 -310 0 0 -310 0 -310 -310 0
-310 0 0 310 0 310 -310 0 -310 0 0 310 0 310 310 0 310 0 0 310 0 310 310 0
310 0 0 -310z m-1522 -1622 c15 -15 16 -54 2 -63 -19 -12 -10 -33 25 -54 29
-17 35 -26 35 -54 0 -23 -9 -43 -26 -63 l-27 -28 23 -16 c77 -52 120 -128 105
-187 l-6 -23 -162 2 -162 3 -3 43 c-4 55 32 120 82 147 20 11 36 24 36 28 0 5
-11 22 -25 39 -14 16 -25 39 -25 51 0 23 37 67 56 67 22 0 25 18 9 51 -15 29
-15 32 1 50 20 22 44 25 62 7z m1240 0 c15 -15 16 -54 2 -63 -19 -12 -10 -33
25 -54 29 -17 35 -26 35 -54 0 -23 -9 -43 -26 -63 l-27 -28 23 -16 c77 -52
120 -128 105 -187 l-6 -23 -162 2 -162 3 -3 43 c-4 55 32 120 82 147 20 11 36
24 36 28 0 5 -11 22 -25 39 -14 16 -25 39 -25 51 0 23 37 67 56 67 22 0 25 18
9 51 -15 29 -15 32 1 50 20 22 44 25 62 7z m1240 0 c15 -15 16 -54 2 -63 -19
-12 -10 -33 25 -54 29 -17 35 -26 35 -54 0 -23 -9 -43 -26 -63 l-27 -28 23
-16 c77 -52 120 -128 105 -187 l-6 -23 -162 2 -162 3 -3 43 c-4 55 32 120 82
147 20 11 36 24 36 28 0 5 -11 22 -25 39 -14 16 -25 39 -25 51 0 23 37 67 56
67 22 0 25 18 9 51 -15 29 -15 32 1 50 20 22 44 25 62 7z"/>
<path d="M1870 2190 l0 -310 310 0 310 0 0 310 0 310 -310 0 -310 0 0 -310z"/>
<path d="M68 3663 c7 -3 16 -2 19 1 4 3 -2 6 -13 5 -11 0 -14 -3 -6 -6z"/>
<path d="M81 2398 c-1 -32 -5 -38 -23 -39 -21 -1 -21 -2 -3 -6 11 -3 23 -10
26 -15 11 -17 15 15 8 57 l-6 40 -2 -37z"/>
<path d="M264 1195 c-11 -17 -14 -36 -10 -56 5 -26 1 -36 -24 -59 -35 -32 -41
-85 -14 -124 15 -23 14 -26 -29 -69 -49 -49 -70 -110 -58 -169 l7 -33 179 -3
c136 -2 180 1 187 10 12 20 9 96 -6 131 -15 35 -51 78 -81 94 -18 10 -17 12 3
38 12 15 22 38 22 51 0 25 -19 74 -29 74 -3 0 -14 7 -24 14 -15 12 -17 18 -7
36 36 66 -74 128 -116 65z m84 -7 c15 -15 16 -54 2 -63 -19 -12 -10 -35 20
-50 56 -29 59 -76 8 -127 l-21 -21 23 -16 c78 -53 121 -128 106 -185 l-7 -26
-162 2 -162 3 -3 43 c-4 55 32 120 82 147 20 11 36 24 36 28 0 5 -11 22 -25
39 -14 16 -25 39 -25 51 0 23 37 67 56 67 22 0 25 18 9 49 -19 37 -19 36 1 55
18 19 45 21 62 4z"/>
<path d="M1504 1195 c-11 -17 -14 -36 -10 -56 5 -26 1 -36 -24 -59 -35 -32
-41 -85 -14 -124 15 -23 14 -26 -29 -69 -49 -49 -70 -110 -58 -169 l7 -33 179
-3 c136 -2 180 1 187 10 12 20 9 96 -6 131 -15 35 -51 78 -81 94 -18 10 -17
12 3 38 12 15 22 38 22 51 0 25 -19 74 -29 74 -3 0 -14 7 -24 14 -15 12 -17
18 -7 36 36 66 -74 128 -116 65z m84 -7 c15 -15 16 -54 2 -63 -19 -12 -10 -35
20 -50 56 -29 59 -76 8 -127 l-21 -21 23 -16 c78 -53 121 -128 106 -185 l-7
-26 -162 2 -162 3 -3 43 c-4 55 32 120 82 147 20 11 36 24 36 28 0 5 -11 22
-25 39 -14 16 -25 39 -25 51 0 23 37 67 56 67 22 0 25 18 9 49 -19 37 -19 36
1 55 18 19 45 21 62 4z"/>
<path d="M2744 1195 c-11 -17 -14 -36 -10 -56 5 -26 1 -36 -24 -59 -35 -32
-41 -85 -14 -124 15 -23 14 -26 -29 -69 -49 -49 -70 -110 -58 -169 l7 -33 179
-3 c136 -2 180 1 187 10 12 20 9 96 -6 131 -15 35 -51 78 -81 94 -18 10 -17
12 3 38 12 15 22 38 22 51 0 25 -19 74 -29 74 -3 0 -14 7 -24 14 -15 12 -17
18 -7 36 36 66 -74 128 -116 65z m84 -7 c15 -15 16 -54 2 -63 -19 -12 -10 -35
20 -50 56 -29 59 -76 8 -127 l-21 -21 23 -16 c78 -53 121 -128 106 -185 l-7
-26 -162 2 -162 3 -3 43 c-4 55 32 120 82 147 20 11 36 24 36 28 0 5 -11 22
-25 39 -14 16 -25 39 -25 51 0 23 37 67 56 67 22 0 25 18 9 49 -19 37 -19 36
1 55 18 19 45 21 62 4z"/>
<path d="M3984 1195 c-11 -17 -14 -36 -10 -56 5 -26 1 -36 -24 -59 -35 -32
-41 -85 -14 -124 15 -23 14 -26 -29 -69 -49 -49 -70 -110 -58 -169 l7 -33 179
-3 c136 -2 180 1 187 10 12 20 9 96 -6 131 -15 35 -51 78 -81 94 -18 10 -17
12 3 38 12 15 22 38 22 51 0 25 -19 74 -29 74 -3 0 -14 7 -24 14 -15 12 -17
18 -7 36 36 66 -74 128 -116 65z m84 -7 c15 -15 16 -54 2 -63 -19 -12 -10 -35
20 -50 56 -29 59 -76 8 -127 l-21 -21 23 -16 c78 -53 121 -128 106 -185 l-7
-26 -162 2 -162 3 -3 43 c-4 55 32 120 82 147 20 11 36 24 36 28 0 5 -11 22
-25 39 -14 16 -25 39 -25 51 0 23 37 67 56 67 22 0 25 18 9 49 -19 37 -19 36
1 55 18 19 45 21 62 4z"/>
<path d="M53 1093 c9 -2 25 -2 35 0 9 3 1 5 -18 5 -19 0 -27 -2 -17 -5z"/>
<path d="M764 556 c4 -41 2 -57 -9 -66 -8 -7 -18 -28 -21 -48 -4 -20 -23 -61
-42 -90 -37 -59 -45 -114 -19 -140 14 -13 79 -41 98 -42 3 0 19 20 37 45 28
40 107 94 119 81 11 -11 -12 -52 -53 -96 -45 -48 -64 -85 -64 -126 l0 -24 205
0 205 0 0 88 c-1 220 -77 361 -220 403 -25 7 -51 21 -58 31 -17 24 -39 23 -54
-2 -16 -25 -22 -25 -61 4 -18 12 -41 26 -51 30 -17 6 -18 2 -12 -48z m71 -16
c4 -6 1 -17 -5 -25 -11 -13 -7 -15 19 -15 27 0 34 5 42 30 6 17 14 30 19 30
11 0 27 -22 31 -44 5 -24 29 -34 29 -12 0 22 15 20 71 -10 92 -50 139 -159
139 -320 l0 -94 -170 0 c-148 0 -170 2 -170 16 0 25 20 56 67 105 38 39 45 54
53 105 4 32 11 66 15 75 3 10 2 20 -4 24 -6 3 -14 -2 -17 -12 -14 -44 -29 -63
-63 -79 -46 -21 -66 -39 -104 -89 -28 -37 -29 -38 -25 -12 6 31 2 33 -24 10
-15 -13 -23 -15 -36 -7 -30 19 -26 62 11 123 18 31 39 75 46 99 9 31 17 42 29
40 11 -2 16 2 14 12 -2 8 -6 30 -9 49 -6 31 -5 33 15 22 11 -6 24 -16 27 -21z"/>
<path d="M802 444 c-24 -16 -30 -44 -9 -44 19 0 34 13 41 38 9 26 -1 28 -32 6z"/>
<path d="M707 283 c-4 -3 -7 -13 -7 -21 0 -12 3 -12 15 -2 8 7 15 16 15 21 0
11 -14 12 -23 2z"/>
<path d="M3380 580 c-8 -14 -7 -26 1 -41 10 -20 5 -28 -45 -76 -54 -51 -56
-56 -56 -104 0 -44 4 -54 29 -77 29 -25 29 -26 15 -60 -19 -46 -18 -51 11 -58
27 -7 33 -20 13 -27 -7 -2 -47 -2 -88 0 -56 4 -80 1 -94 -10 -17 -13 -18 -16
-4 -36 13 -19 27 -22 111 -26 85 -3 99 -2 121 16 l26 20 26 -20 c22 -18 36
-19 122 -16 85 4 99 7 111 26 14 19 13 23 -5 36 -14 11 -38 14 -94 10 -78 -4
-100 -2 -100 14 0 5 6 9 13 9 32 1 39 16 26 60 -12 39 -11 43 9 59 60 46 48
123 -30 192 -47 41 -51 48 -39 63 11 13 11 22 3 41 -15 32 -66 35 -82 5z m60
-20 c0 -13 -7 -20 -20 -20 -13 0 -20 7 -20 20 0 13 7 20 20 20 13 0 20 -7 20
-20z m45 -113 c62 -60 70 -95 34 -141 -19 -24 -26 -26 -99 -26 -73 0 -80 2
-99 26 -37 47 -28 81 36 141 31 29 60 53 65 53 5 0 33 -24 63 -53z m-7 -199
c23 -23 12 -28 -58 -28 -70 0 -81 5 -58 28 16 16 100 16 116 0z m-3 -58 c4 -6
-17 -10 -55 -10 -38 0 -59 4 -55 10 3 6 28 10 55 10 27 0 52 -4 55 -10z m-77
-65 c-15 -34 -51 -43 -138 -36 -102 8 -91 26 15 26 67 0 88 4 102 18 25 24 34
21 21 -8z m178 -8 c74 5 84 4 84 -11 0 -13 -12 -16 -67 -18 -38 -1 -79 -1 -92
0 -27 1 -61 29 -61 49 0 11 7 9 26 -6 24 -19 35 -20 110 -14z"/>
<path d="M3410 415 c0 -7 -7 -18 -16 -23 -14 -8 -13 -12 9 -36 23 -25 25 -25
30 -6 3 11 12 20 21 20 9 0 16 5 16 10 0 6 -7 10 -16 10 -9 0 -18 9 -21 20 -6
23 -23 27 -23 5z"/>
<path d="M4460 542 c0 -56 2 -61 40 -95 39 -35 40 -36 40 -106 0 -64 -3 -73
-30 -104 -20 -23 -30 -45 -30 -66 0 -26 -4 -31 -25 -31 -22 0 -25 -4 -25 -40
l0 -40 224 0 224 0 6 24 c8 33 -2 54 -27 58 -16 2 -23 11 -25 33 -2 16 -15 42
-28 58 -21 25 -24 39 -24 107 0 78 0 79 35 107 33 27 35 31 35 91 l0 62 -45 0
c-38 0 -45 -3 -45 -20 0 -15 -7 -20 -26 -20 -17 0 -28 6 -31 20 -4 16 -14 20
-49 20 -37 0 -44 -3 -44 -20 0 -15 -7 -20 -25 -20 -18 0 -25 5 -25 20 0 17 -7
20 -50 20 l-50 0 0 -58z m72 16 c3 -20 10 -23 50 -26 42 -3 47 -1 50 20 4 33
45 38 50 6 3 -20 10 -23 51 -26 45 -3 47 -2 47 23 0 22 4 26 23 23 18 -2 22
-9 22 -38 l0 -35 -167 -3 -168 -2 0 40 c0 33 3 40 19 40 13 0 21 -8 23 -22z
m258 -86 c0 -25 -30 -32 -128 -32 -100 0 -149 11 -137 31 7 11 265 12 265 1z
m-40 -132 l0 -81 -92 3 -93 3 -3 78 -3 77 96 0 95 0 0 -80z m29 -113 c6 -8 8
-17 4 -20 -11 -12 -241 -8 -249 4 -13 21 21 29 127 29 77 0 110 -4 118 -13z
m31 -67 c0 -19 -7 -20 -149 -20 -89 0 -152 4 -156 10 -15 25 13 30 156 30 142
0 149 -1 149 -20z m50 -65 c0 -13 -29 -15 -205 -15 -176 0 -205 2 -205 15 0
13 29 15 205 15 176 0 205 -2 205 -15z"/>
<path d="M3678 163 c7 -3 16 -2 19 1 4 3 -2 6 -13 5 -11 0 -14 -3 -6 -6z"/>
<path d="M4900 166 c0 -2 7 -7 16 -10 8 -3 12 -2 9 4 -6 10 -25 14 -25 6z"/>
<path d="M3902 444 c-24 -16 -30 -44 -9 -44 19 0 34 13 41 38 9 26 -1 28 -32
6z"/>
<path d="M3807 283 c-4 -3 -7 -13 -7 -21 0 -12 3 -12 15 -2 8 7 15 16 15 21 0
11 -14 12 -23 2z"/>
<path d="M4280 130 c0 -18 4 -29 10 -25 6 3 10 15 10 25 0 10 -4 22 -10 25 -6
4 -10 -7 -10 -25z"/>
<path d="M4275 80 c-3 -5 -2 -10 4 -10 5 0 13 5 16 10 3 6 2 10 -4 10 -5 0
-13 -4 -16 -10z"/>
<path d="M1550 415 c0 -7 -7 -18 -16 -23 -14 -8 -13 -12 9 -36 23 -25 25 -25
30 -6 3 11 12 20 21 20 9 0 16 5 16 10 0 6 -7 10 -16 10 -9 0 -18 9 -21 20 -6
23 -23 27 -23 5z"/>
<path d="M550 110 c0 -5 5 -10 10 -10 6 0 10 5 10 10 0 6 -4 10 -10 10 -5 0
-10 -4 -10 -10z"/>
<path d="M3035 150 c-3 -5 1 -10 10 -10 9 0 13 5 10 10 -3 6 -8 10 -10 10 -2
0 -7 -4 -10 -10z"/>
<path d="M2773 4926 c-27 -28 -29 -36 -8 -36 20 0 19 -34 -1 -51 -9 -7 -20
-24 -25 -37 -7 -18 -14 -22 -27 -16 -36 16 -122 16 -147 0 -68 -45 -69 -126
-2 -190 44 -42 51 -73 34 -143 -8 -30 -6 -34 20 -45 40 -17 307 -17 355 0 35
12 36 14 27 45 -19 67 -12 97 36 148 39 42 45 54 45 93 0 35 -6 50 -30 76 -29
31 -33 32 -93 28 -34 -3 -69 -8 -78 -12 -12 -5 -18 -1 -23 18 -3 14 -15 30
-26 36 -26 14 -26 46 1 53 23 6 17 27 -7 27 -8 0 -14 7 -14 15 0 21 -11 18
-37 -9z m57 -121 c9 -11 8 -24 -6 -60 -9 -25 -22 -44 -27 -42 -16 5 -41 82
-34 101 8 20 50 21 67 1z m-111 -52 c44 -33 81 -121 63 -149 -4 -6 -42 -14
-84 -17 l-77 -7 -41 39 c-51 49 -54 88 -10 133 28 27 36 30 77 25 25 -2 57
-14 72 -24z m311 2 c41 -37 30 -104 -25 -148 -33 -27 -37 -27 -112 -20 -75 8
-78 9 -81 35 -2 15 6 48 17 73 16 36 30 50 63 66 49 23 109 20 138 -6z m-101
-211 c17 -4 31 -12 31 -18 0 -8 -48 -11 -160 -11 -117 0 -160 3 -160 12 0 6
10 14 23 16 36 7 232 8 266 1z m32 -75 c16 -26 9 -30 -38 -23 -60 10 -206 10
-256 0 -34 -6 -38 -5 -35 11 5 25 51 32 196 29 93 -2 126 -7 133 -17z"/>
<path d="M2786 4791 c-8 -13 4 -42 15 -35 12 7 12 44 0 44 -6 0 -12 -4 -15 -9z"/>
<path d="M2587 4732 c-25 -27 -21 -57 11 -93 27 -31 28 -31 96 -24 l68 8 -6
31 c-9 47 -67 96 -114 96 -25 0 -45 -7 -55 -18z"/>
<path d="M2899 4735 c-33 -18 -59 -57 -59 -88 0 -22 5 -25 61 -31 58 -7 63 -6
90 20 73 70 0 149 -92 99z"/>
<path d="M3864 4896 c4 -40 2 -57 -8 -66 -8 -6 -18 -26 -21 -43 -4 -18 -23
-59 -42 -92 -39 -67 -45 -115 -17 -146 9 -10 27 -19 40 -19 13 0 26 -4 29 -10
12 -20 32 -9 63 35 28 40 107 94 119 81 11 -11 -12 -52 -53 -96 -45 -48 -64
-85 -64 -126 l0 -24 205 0 205 0 0 88 c0 118 -22 214 -64 282 -39 62 -106 114
-162 125 -21 4 -44 15 -52 26 -17 25 -37 24 -57 -3 -13 -19 -18 -21 -33 -10
-42 31 -78 52 -86 52 -5 0 -6 -24 -2 -54z m106 -46 c0 -13 -28 -25 -38 -16 -3
4 0 11 8 16 20 13 30 12 30 0z m193 -27 c75 -52 117 -162 117 -310 0 -91 0
-93 -24 -93 -24 0 -24 1 -27 118 -4 109 -6 122 -36 183 -27 55 -41 70 -78 90
-51 27 -62 55 -17 44 15 -3 44 -18 65 -32z m-238 -33 c7 -12 -30 -50 -50 -50
-21 0 -19 10 7 37 23 25 34 28 43 13z m150 -67 c-3 -16 -13 -35 -22 -43 -13
-13 -14 -11 -8 20 9 42 13 50 27 50 6 0 8 -11 3 -27z m-245 -107 c0 -16 -18
-31 -27 -22 -8 8 5 36 17 36 5 0 10 -6 10 -14z m40 -45 c0 -12 -20 -25 -27
-18 -7 7 6 27 18 27 5 0 9 -4 9 -9z"/>
<path d="M120 4882 c0 -56 2 -61 40 -96 39 -36 40 -38 40 -106 0 -63 -3 -73
-30 -103 -20 -23 -30 -45 -30 -66 0 -26 -4 -31 -25 -31 -22 0 -25 -4 -25 -40
l0 -40 225 0 225 0 0 40 c0 36 -2 40 -25 40 -21 0 -25 5 -25 31 0 19 -10 43
-25 61 -22 26 -25 39 -25 108 0 78 0 79 35 107 33 27 35 31 35 91 l0 62 -45 0
c-38 0 -45 -3 -45 -20 0 -15 -7 -20 -26 -20 -17 0 -28 6 -31 20 -4 16 -14 20
-49 20 -37 0 -44 -3 -44 -20 0 -15 -7 -20 -25 -20 -18 0 -25 5 -25 20 0 17 -7
20 -50 20 l-50 0 0 -58z m358 -54 c-3 -10 -43 -14 -144 -16 -143 -3 -184 1
-184 18 0 6 64 10 166 10 128 0 165 -3 162 -12z m-58 -47 c0 -23 -32 -32 -111
-29 -70 3 -84 6 -87 21 -3 15 7 17 97 17 56 0 101 -4 101 -9z m-10 -175 c0 -2
3 -11 6 -20 5 -14 -7 -16 -93 -16 -104 0 -120 4 -102 27 8 9 38 13 100 13 49
0 89 -2 89 -4z m58 -73 c3 -10 -31 -13 -147 -13 -139 0 -164 4 -144 24 4 3 70
5 147 4 100 -2 141 -6 144 -15z m2 -68 c0 -13 -23 -15 -149 -15 -136 0 -172 5
-154 24 3 3 73 6 155 6 125 0 148 -2 148 -15z"/>
<path d="M1520 4920 c-8 -14 -7 -26 1 -41 10 -20 5 -28 -45 -76 -54 -51 -56
-56 -56 -104 0 -44 4 -54 29 -77 29 -25 29 -26 15 -60 -19 -46 -18 -51 11 -58
26 -6 34 -23 13 -25 -7 -1 -47 -1 -88 0 -91 3 -123 -12 -98 -48 13 -19 27 -22
111 -26 85 -3 99 -2 121 16 l26 20 26 -20 c22 -18 36 -19 122 -16 85 4 99 7
111 26 14 19 13 23 -5 36 -14 11 -38 14 -94 10 -78 -4 -100 -2 -100 14 0 5 6
9 13 9 32 1 39 16 26 60 -12 39 -11 43 9 59 60 46 48 123 -30 192 -47 41 -51
48 -39 63 11 13 11 22 3 41 -15 32 -66 35 -82 5z m53 -170 c3 -11 12 -20 21
-20 9 0 16 -4 16 -10 0 -5 -7 -10 -16 -10 -9 0 -18 -9 -21 -20 -3 -11 -9 -20
-13 -20 -4 0 -10 9 -13 20 -3 11 -12 20 -21 20 -23 0 -20 17 4 23 11 3 20 12
20 21 0 23 17 20 23 -4z m35 -140 c2 -12 -7 -14 -48 -12 -27 2 -50 8 -50 12 0
24 93 24 98 0z m30 -67 c3 -10 -17 -13 -77 -13 -75 0 -92 6 -74 24 12 12 146
2 151 -11z m-93 -63 c-3 -5 -11 -10 -16 -10 -6 0 -7 5 -4 10 3 6 11 10 16 10
6 0 7 -4 4 -10z m50 0 c3 -5 1 -10 -4 -10 -6 0 -11 5 -11 10 0 6 2 10 4 10 3
0 8 -4 11 -10z"/>
<path d="M4605 4300 c-13 -14 -16 -29 -12 -56 5 -32 2 -41 -23 -64 -24 -22
-30 -37 -30 -68 0 -23 6 -45 15 -52 23 -19 19 -29 -26 -69 -47 -41 -72 -114
-60 -172 l7 -34 179 -3 c136 -2 180 1 187 10 15 24 8 101 -13 145 -11 23 -35
53 -52 65 -18 12 -34 23 -36 24 -2 2 6 15 18 30 11 15 21 38 21 51 0 35 -26
80 -51 88 -15 5 -18 11 -13 23 13 30 7 75 -12 89 -27 20 -78 16 -99 -7z"/>
</g>
</svg>
